PathFileType	4	(X/Y/Z)	T1_P2_Vision_Movement_3_0-736.trc
DataRate	CameraRate	NumFrames	NumMarkers	Units	OrigDataRate	OrigDataStartFrame	OrigNumFrames
60	60	5	27	m	60	0	736
Frame#	Time	RHip			RKnee			RAnkle			RBigToe			RSmallToe			RHeel			LHip			LKnee			LAnkle			LBigToe			LSmallToe			LHeel			Neck			Head			Nose			RShoulder			RElbow			RWrist			RThumb			RIndex			RPinky			LShoulder			LElbow			LWrist			LThumb			LIndex			LPinky		
		X1	Y1	Z1	X2	Y2	Z2	X3	Y3	Z3	X4	Y4	Z4	X5	Y5	Z5	X6	Y6	Z6	X7	Y7	Z7	X8	Y8	Z8	X9	Y9	Z9	X10	Y10	Z10	X11	Y11	Z11	X12	Y12	Z12	X13	Y13	Z13	X14	Y14	Z14	X15	Y15	Z15	X16	Y16	Z16	X17	Y17	Z17	X18	Y18	Z18	X19	Y19	Z19	X20	Y20	Z20	X21	Y21	Z21	X22	Y22	Z22	X23	Y23	Z23	X24	Y24	Z24	X25	Y25	Z25	X26	Y26	Z26	X27	Y27	Z27
1	0.016666666666666666	456.6283248264996	3656.3433650403927	638.8659305429431	842.4351343253279	3687.5018067665674	651.044915151128	1222.2072830765412	3746.7376488414175	706.0302880886809	1294.3263256681505	3635.312590943865	656.1576120320871	1281.5219847875399	3663.1365438500634	604.6480821372569	1295.2982066101356	3816.5435431932074	762.1740965653642	477.8593540600111	3617.5247574994432	850.1785383777012	872.3913544124143	3629.6423068207478	848.2035263026096	1241.1937227246656	3704.7251744266077	857.7675498187923	1320.4678575299783	3595.7390650125826	805.6073619066997	1283.616951003947	3549.6090259399994	821.4906307213874	1266.2755946514337	3730.039699390683	864.4303955882089	-121.23412239229174	3591.7281215066823	755.2624905526217	-381.93223330435234	3562.433902087897	744.0584812708458	-232.63850284970366	3450.6302650104085	710.81399315606	-46.980434536659715	3693.2725082727134	604.885254233419	187.0809339064196	3810.9000838333304	547.6461324985382	152.46876793049924	3618.783917589328	513.9845542103155	94.40161912814612	3425.8699593627025	480.08423021491524	103.26355280851179	3429.0150738944676	480.4479486736267	184.25663076870916	3454.0472429574875	486.4238990506545	-34.87248180364506	3546.844101529796	889.7534658307686	229.02285665726447	3553.0017807486506	965.8973130102358	496.52639223206825	3528.3406556516693	957.8697794020351	598.1250388965097	3521.2203663786713	912.6390520943866	619.8407414588294	3498.674826598012	928.5940505576056	610.6323056202751	3452.35845046394	958.9841897788215
2	0.03333333333333333	451.2859540361924	3656.9680539889227	633.4958603298669	833.2813241828934	3693.2574009702516	648.1119221679812	1223.9924388262828	3762.2996980361095	718.6725832944117	1288.0878650245916	3632.4559913495536	654.0452085934471	1278.7666195772204	3668.039054835813	607.2922114201908	1282.3409754768434	3807.79483945789	760.2391486927081	469.18074849495656	3620.743440222284	851.9483264833519	867.0800201191392	3628.372704095272	846.9847312963885	1244.3152554897204	3698.4764756998993	854.1353302241201	1329.0098693979694	3618.4307116875834	813.475369982976	1283.6339809497051	3550.501500584237	821.916455845205	1271.930274442165	3731.110002104309	865.7730421098985	-125.2941233859251	3595.642402276864	757.350201184935	-381.86304142723964	3562.0027581498534	743.748201147773	-232.8912086464165	3453.1838574840613	706.8912292757235	-46.81218992267333	3692.2507049309743	610.1707666596013	183.1385220445165	3815.885453850306	550.004117564505	152.1529197415273	3619.0447163769823	514.082357371194	89.75086666982352	3429.954333424974	482.8798939572457	99.14613498378094	3427.313822287849	479.91693905104614	174.9034280150232	3450.0417093714213	484.9635714022517	-35.01879007346565	3546.976484535589	889.7883095130946	228.91798903763663	3552.9722107892253	965.9445057698516	491.466358053724	3526.7984747320393	956.7435771755958	594.2696119084505	3520.0151074578234	911.6956654607895	614.8080588605437	3497.206351847416	927.5521670347938	606.4366399791028	3431.637003707672	951.3931891678228
3	0.05	447.7319409056277	3661.9283694659857	636.0065891038588	828.2758468717027	3671.6703512742233	642.414408178426	1216.3780167581913	3744.976572279267	704.3920653412341	1288.549220651533	3633.4569045069156	654.5087813326346	1278.9546699678863	3668.059515644675	607.2055506455777	1288.6475021543013	3812.2464215447008	761.2515168793584	469.3257790672301	3620.864315588684	852.0121712946811	867.0339426088586	3628.446535448981	846.991320064374	1241.1558317296137	3704.5635336544487	857.7147034623315	1328.8287223374457	3618.4219432731475	813.459258421679	1283.57784124174	3550.487556155641	821.951662856444	1266.1653912871884	3729.7369199694003	864.290718068758	-125.27347667833173	3595.907294741208	757.4736577775503	-381.93448468217946	3562.480116076723	744.0806753030264	-232.9156846721304	3450.8852503824633	710.8268805847987	-46.8041857892718	3692.314955761634	610.1109499304692	188.57599409008674	3840.875452542242	556.5740777933016	144.52038414239232	3598.2417424274913	499.2757805118298	89.93785674808424	3432.13581566956	483.96779451436873	99.10314297337358	3428.992264962625	480.8255840038441	177.63771947783016	3439.1596846062926	493.3013788675135	-35.01904345115824	3547.070367267764	889.8105408804074	232.93977575885737	3548.986799981427	963.3906995390638	491.39811989179606	3524.079795808696	960.781103650518	594.3794789043734	3519.8897515317612	911.6290314177702	614.6909422655096	3496.8748456987596	927.5221687641977	606.521266268905	3431.7040590054476	951.4088920221128
4	0.06666666666666667	459.7590721662672	3678.6130139548172	644.5996848933933	838.6865452284887	3694.920569098934	649.339387430471	1209.5488685308728	3740.5503472240543	703.1261586346844	1288.1649356450894	3633.74800130933	654.3552391040778	1278.7144626729928	3668.3151141455905	607.28257609262	1275.7737292164238	3803.124277924294	758.9909862496455	473.93070856202513	3622.1954444441903	853.0484768458508	871.9932894185831	3629.7224904305945	848.1643541729469	1237.0057988799203	3693.6191263011674	852.3996414438674	1323.058684059528	3620.995772322586	806.2043611606064	1283.3600220735914	3550.640215279946	821.9108391181278	1259.0548559435827	3724.8300040492622	862.7835832116835	-125.53872091084081	3617.692767828543	763.724075591276	-381.92591945713133	3562.3332478049956	744.0947081437045	-232.83340530750314	3450.9237746963186	710.8349732933754	-47.05410706527843	3693.7626379305852	604.885157465064	190.51663857960216	3857.826009225589	570.1298373059432	143.94368484217728	3641.645940676038	514.6549644554468	88.54866934416799	3418.7029375714837	471.34939375742516	103.18448004813709	3431.7570248175452	480.786878271889	177.27909406986478	3438.3591456075997	492.53765633214744	-34.998540203864884	3547.018029170528	889.7404605263501	229.0771424019726	3552.8718274494972	965.7657312651452	491.3849991577994	3523.9983035531827	960.7317755812996	594.393681293357	3520.0470845286595	911.6750585819458	614.7017232327491	3497.207315321752	927.5413185393231	606.461029984328	3431.452670520715	951.2194148584686
5	0.08333333333333333	451.47716605462506	3657.5487018886975	633.7074337008708	833.2916144059749	3693.602391782148	648.2272976625685	1217.372942741178	3758.390469427051	717.7654207814759	1288.0892220813748	3633.920439928006	654.2062883458915	1278.7211302927367	3668.4546054903963	607.4528718948787	1282.330173855517	3807.931086014561	760.3299325573114	469.22076332720854	3620.9002834228218	852.0332277682163	863.5664043376958	3633.2406834057033	849.9303571235196	1234.1043370937268	3699.738236569214	856.0674343533836	1321.323129664146	3603.6729604520656	800.179920604045	1283.492657165311	3550.5848709032957	821.8435910421784	1265.9505289986266	3729.4952654335507	864.2051710151807	-125.47849309650425	3620.4110356617957	760.2645642340591	-382.0005125443492	3562.5149858368445	744.3484473774961	-232.79641011047576	3451.1915906204817	711.0240355032328	-47.053887417923875	3693.460077120013	604.8454710066737	194.3792509394954	3851.520067914088	560.7055478184432	146.0685001833222	3620.5967836154996	499.3093851368408	79.17350991764546	3420.8624392354127	473.6754382301132	98.53430895049485	3430.441706191145	481.4147260993862	170.36051137631895	3458.7748105013634	487.92702786042463	-35.115401576275985	3547.084419467365	889.9719515244001	228.93521215658288	3553.053127734289	965.9147554188721	491.5115719239119	3526.8776846939595	956.7570477448276	594.5063521250233	3519.710487167351	911.6160296061233	610.6377322474066	3475.069399377466	919.3894562761816	606.3693065356147	3431.3348253888557	951.3744762062474
